<?xml version="1.0" encoding="utf-8"?>
<!-- Generator: Adobe Illustrator 19.2.1, SVG Export Plug-In . SVG Version: 6.00 Build 0)  -->
<svg version="1.1" id="Layer_1" xmlns="http://www.w3.org/2000/svg" xmlns:xlink="http://www.w3.org/1999/xlink" x="0px" y="0px"
	 viewBox="0 0 229.9 43.9" style="enable-background:new 0 0 229.9 43.9;" xml:space="preserve">
<style type="text/css">
	.st0{fill:#FFFFFF;}
	.st1{fill:none;stroke:#FFFFFF;stroke-width:4;stroke-miterlimit:10;}
</style>
<path class="st0" d="M27.8,13.9c0-0.3-0.1-0.5-0.2-0.8c-0.8-2.5-2.8-4.4-5.4-5c-4-0.9-7.9,1.5-8.8,5.5c-0.9,2.8-0.4,5.8,1.5,8.1
	c0.2,0.2,0.5,0.4,0.8,0.4c1.6,0,3.1,0,4.7,0c0,0,0,0,0,0c1.6,0,3.1,0.1,4.7,0c0.5,0,0.9-0.2,1.2-0.5C27.9,19.3,28.4,16.5,27.8,13.9z
	 M25.2,17.5c-0.2,1.2-0.9,2.3-1.8,3.1c-0.1,0.1-0.3,0.2-0.4,0.3c-2.1,1.4-4.9,0.8-6.3-1.2c-1.5-2.1-1.5-4.9,0-7.1
	c0.4-0.7,1.1-1.2,1.8-1.6c2-1,4.3-0.4,5.6,1.3l0,0C24,12.4,25.6,14.9,25.2,17.5z"/>
<title>openthrone-logo</title>
<path class="st0" d="M16.6,34.6C16.7,34.6,16.6,34.6,16.6,34.6c-0.6,0-1.1,0.2-1,0.9s0.6,0.7,1.2,0.7h7.6c0.4,0.1,0.8-0.2,0.8-0.6
	c0-0.1,0-0.1,0-0.2c-0.1-0.3-0.4-0.6-0.7-0.8c-0.1-0.1-0.2-0.1-0.3-0.1l-0.9-2.8c2.3-1.5,3.8-4,3.9-6.7c1-0.4,1.4-0.8,1.2-1.6
	c-0.2-0.6-0.8-1-1.5-0.9h-7.4c-2,0-4,0-5.9,0c-0.5,0.1-0.9,0.4-1.1,0.8c-0.2,0.6,0.1,1.1,0.6,1.4c0.2,0.2,0.4,0.4,0.5,0.7
	c0.1,1.5,0.7,2.8,1.6,4c0.7,0.8,1.5,1.6,2.3,2.3L16.6,34.6z"/>
<path class="st0" d="M16.6,34.6l0.8-2.7c-0.8-0.7-1.5-1.5-2.3-2.3c-0.9-1.2-1.4-2.5-1.6-4c-0.1-0.3-0.2-0.6-0.5-0.7
	c-0.5-0.2-0.8-0.8-0.6-1.4c0.2-0.4,0.6-0.7,1.1-0.8c2-0.1,4,0,5.9,0H27c0.6-0.2,1.3,0.2,1.5,0.9c0.2,0.8-0.2,1.2-1.2,1.6
	c-0.1,2.8-1.6,5.3-3.9,6.7l0.9,2.8c0.1,0,0.2,0,0.3,0.1c0.3,0.2,0.5,0.5,0.7,0.8c0,0.4-0.3,0.7-0.6,0.8c-0.1,0-0.1,0-0.2,0h-7.6
	c-0.5,0-1.1,0-1.2-0.7S16,34.7,16.6,34.6C16.7,34.6,16.8,34.6,16.6,34.6z"/>
<path class="st1" d="M15.8,2h9.9c6.6,0,12,5.4,12,12v15.9c0,6.6-5.4,12-12,12h-9.9c-6.6,0-12-5.4-12-12V14C3.8,7.4,9.1,2,15.8,2z"/>
<path class="st0" d="M57.2,25.7c-5.7,0-8.7-3.9-8.7-10.6s3-10.6,8.7-10.6s8.7,3.9,8.7,10.6S62.8,25.7,57.2,25.7z M57.2,7.7
	c-3.2,0-4.7,2.5-4.7,7.3s1.5,7.3,4.7,7.3s4.7-2.5,4.7-7.3S60.4,7.7,57.2,7.7L57.2,7.7z"/>
<path class="st0" d="M67.3,25.4V4.7h7.6c4.5,0,7.3,1.9,7.3,6.2S79.3,17,74.9,17h-3.6v8.4L67.3,25.4L67.3,25.4z M71.3,13.8h3.2
	c3,0,3.8-1.1,3.8-3s-0.8-3-3.8-3h-3.2L71.3,13.8L71.3,13.8z"/>
<path class="st0" d="M83.3,25.4V4.7H97V8h-9.8v5h7.1v3.3h-7.1v5.8h10.1v3.3L83.3,25.4L83.3,25.4z"/>
<path class="st0" d="M98.8,25.4V4.7h4.1l8.2,14.1h0.1V4.7h3.7v20.7h-3.8l-8.5-14.8h-0.1v14.8H98.8z"/>
<path class="st0" d="M139.8,4.7V8h-5.4v17.4h-4V8h-5.4V4.7H139.8z"/>
<path class="st0" d="M141.1,25.4V4.7h4V13h8V4.7h4v20.7h-4v-8.9h-8v8.9L141.1,25.4L141.1,25.4z"/>
<path class="st0" d="M159.9,25.4V4.7h8.3c4.7,0,6.6,2.7,6.6,6.1c0.2,2.5-1.4,4.7-3.8,5.3l4.6,9.2h-4.4l-3.9-8.4h-3.4v8.4L159.9,25.4
	L159.9,25.4z M163.9,13.8h2.9c3.1,0,4-1,4-2.9s-1.2-2.9-3.4-2.9h-3.6v5.9L163.9,13.8z"/>
<path class="st0" d="M184.6,25.7c-5.6,0-8.7-3.9-8.7-10.6s3-10.6,8.7-10.6s8.7,3.9,8.7,10.6S190.3,25.7,184.6,25.7z M184.6,7.7
	c-3.2,0-4.7,2.5-4.7,7.3s1.5,7.3,4.7,7.3s4.7-2.5,4.7-7.3S187.9,7.7,184.6,7.7L184.6,7.7z"/>
<path class="st0" d="M194.8,25.4V4.7h4.1l8.1,14.1h0.1V4.7h3.7v20.7h-3.8l-8.5-14.8h-0.1v14.8H194.8z"/>
<path class="st0" d="M213.9,25.4V4.7h13.7V8h-9.8v5h7.1v3.3h-7.1v5.8h10.1v3.3L213.9,25.4L213.9,25.4z"/>
<path class="st0" d="M52.5,35.2l1.5-3.5h1.8l-2.4,5.3v3.5h-1.6V37l-2.4-5.3h1.8L52.5,35.2z"/>
<path class="st0" d="M57.6,34.1c1.7,0,2.8,1.3,2.8,3.3s-1,3.3-2.8,3.3s-2.8-1.3-2.8-3.3S55.8,34.1,57.6,34.1z M57.6,35.3
	c-0.8,0-1.2,0.7-1.2,2.1s0.4,2.1,1.2,2.1s1.2-0.7,1.2-2.1S58.4,35.3,57.6,35.3L57.6,35.3z"/>
<path class="st0" d="M65.9,34.2v6.3h-1.4v-0.7c-0.6,0.5-1.2,0.7-2,0.8c-1.3,0-1.9-0.8-1.9-2.1v-4.3h1.5v4.1c0,0.8,0.3,1.1,0.8,1.1
	c0.5,0,1.1-0.3,1.4-0.7v-4.6H65.9L65.9,34.2z"/>
<path class="st0" d="M66.6,40.6v-6.3H68v1.1l0,0c0.3-0.7,1-1.2,1.8-1.2v1.6h-0.2c-0.6,0.1-1.1,0.4-1.4,1v3.8L66.6,40.6L66.6,40.6z"
	/>
<path class="st0" d="M73.2,40.6v-8.8H75l3.5,6l0,0v-6h1.6v8.8h-1.6l-3.6-6.3l0,0v6.3C74.8,40.6,73.2,40.6,73.2,40.6z"/>
<path class="st0" d="M86.3,34.2v6.3h-1.4v-0.7c-0.6,0.5-1.2,0.7-1.9,0.8c-1.3,0-1.9-0.8-1.9-2.1v-4.3h1.5v4.1c0,0.8,0.3,1.1,0.8,1.1
	c0.5,0,1-0.3,1.4-0.7v-4.6H86.3L86.3,34.2z"/>
<path class="st0" d="M87.1,40.6v-6.3h1.4v0.7c0.5-0.5,1.2-0.8,1.9-0.8c0.7,0,1.3,0.3,1.6,0.9c0.6-0.6,1.4-1,2.2-0.9
	c0.7,0,1.6,0.4,1.6,1.9v4.6h-1.5v-4.4c0.1-0.4-0.2-0.7-0.6-0.8c-0.1,0-0.1,0-0.2,0c-0.5,0.1-0.9,0.3-1.3,0.7v4.6h-1.5v-4.4
	c0.1-0.4-0.2-0.7-0.6-0.8c-0.1,0-0.1,0-0.2,0c-0.5,0.1-0.9,0.3-1.3,0.7v4.6H87.1z"/>
<path class="st0" d="M96.5,31.8h1.5v3l0,0c0.4-0.4,1-0.7,1.5-0.7c1.6,0,2.5,1.6,2.5,3.1c0,2-0.8,3.5-2.5,3.5c-0.7,0-1.3-0.3-1.7-0.8
	l-0.1,0.7h-1.2V31.8L96.5,31.8z M98.1,38.9c0.3,0.3,0.7,0.5,1.2,0.6c0.9,0,1.4-0.7,1.4-2.1s-0.5-2.1-1.4-2.1c-0.4,0-0.9,0.2-1.2,0.5
	V38.9L98.1,38.9z"/>
<path class="st0" d="M103.6,37.6c0,1.3,0.6,1.8,1.3,1.8c0.6,0,1.1-0.3,1.4-0.8l1.1,0.7c-0.6,0.9-1.6,1.4-2.7,1.3
	c-1.6,0-2.7-1.3-2.7-3.3s1-3.3,2.8-3.3c1.5,0,2.6,1.2,2.6,2.7c0,0.1,0,0.1,0,0.2v0.6L103.6,37.6L103.6,37.6z M106,36.6
	c0.1-0.7-0.4-1.3-1.1-1.4s-1.3,0.4-1.4,1.1c0,0.1,0,0.2,0,0.3H106z"/>
<path class="st0" d="M107.8,40.6v-6.3h1.4v1.1l0,0c0.3-0.7,1-1.2,1.8-1.2v1.6h-0.3c-0.6,0.1-1.1,0.4-1.4,1v3.8L107.8,40.6
	L107.8,40.6z"/>
<path class="st0" d="M120,31.8v1.4h-2.3v7.4H116v-7.4h-2.3v-1.4H120L120,31.8z"/>
<path class="st0" d="M118.8,34.2h1.4l0.9,4l0,0l0.9-4h1.4l0.9,4l0,0l0.9-4h1.4l-1.6,6.3h-1.4l-0.9-4l0,0l-0.9,3.9h-1.4L118.8,34.2z"
	/>
<path class="st0" d="M129.1,34.1c1.7,0,2.8,1.3,2.8,3.3s-1,3.3-2.8,3.3s-2.8-1.3-2.8-3.3S127.3,34.1,129.1,34.1z M129.1,35.3
	c-0.8,0-1.2,0.7-1.2,2.1s0.4,2.1,1.2,2.1s1.2-0.7,1.2-2.1S129.9,35.3,129.1,35.3L129.1,35.3z"/>
<path class="st0" d="M135.3,33.1v-1.4h1.5V33L135.3,33.1L135.3,33.1z M136.8,40.6h-1.5v-6.3h1.5L136.8,40.6L136.8,40.6z"/>
<path class="st0" d="M140.9,35.9c-0.3-0.4-0.7-0.6-1.2-0.7c-0.6,0-0.9,0.2-0.9,0.6c0,1.1,3.2,0.6,3.2,2.9c0,1.3-1,1.9-2.3,1.9
	c-1,0-1.9-0.5-2.4-1.3l1-0.8c0.3,0.5,0.9,0.9,1.5,0.9c0.4,0.1,0.8-0.2,0.9-0.6c0,0,0,0,0-0.1c0-1.1-3.2-0.7-3.2-2.9
	c0-1.1,0.9-1.9,2-1.8c0,0,0.1,0,0.1,0c0.9,0,1.7,0.4,2.2,1L140.9,35.9z"/>
<path class="st0" d="M148.8,40.7c-2.4,0-3.7-1.6-3.7-4.5s1.3-4.5,3.7-4.5s3.7,1.6,3.7,4.5S151.1,40.7,148.8,40.7z M148.8,33
	c-1.4,0-2,1-2,3.1s0.6,3.1,2,3.1s2-1,2-3.1S150.1,33.1,148.8,33L148.8,33z"/>
<path class="st0" d="M158.1,34.2v6.3h-1.4v-0.7c-0.6,0.5-1.2,0.7-1.9,0.8c-1.3,0-1.9-0.8-1.9-2.1v-4.3h1.5v4.1
	c0,0.8,0.3,1.1,0.8,1.1c0.5,0,1.1-0.3,1.4-0.7v-4.6H158.1L158.1,34.2z"/>
<path class="st0" d="M158.8,40.6v-6.3h1.4v1.1l0,0c0.3-0.7,1-1.2,1.8-1.2v1.6h-0.2c-0.6,0.1-1.1,0.4-1.4,1v3.8L158.8,40.6
	L158.8,40.6z"/>
<path class="st0" d="M165.4,40.6v-8.8h1.8l3.5,6l0,0v-6h1.6v8.8h-1.6l-3.6-6.3l0,0v6.3L165.4,40.6L165.4,40.6z"/>
<path class="st0" d="M178.5,34.2v6.3h-1.4v-0.7c-0.6,0.5-1.2,0.7-1.9,0.8c-1.3,0-1.9-0.8-1.9-2.1v-4.3h1.5v4.1
	c0,0.8,0.3,1.1,0.8,1.1c0.5,0,1.1-0.3,1.4-0.7v-4.6H178.5L178.5,34.2z"/>
<path class="st0" d="M179.3,40.6v-6.3h1.4v0.7c0.5-0.5,1.2-0.8,1.9-0.8c0.7,0,1.3,0.3,1.6,0.9c0.6-0.6,1.4-1,2.2-0.9
	c0.7,0,1.6,0.4,1.6,1.9v4.6h-1.5v-4.4c0.1-0.4-0.2-0.7-0.6-0.8c-0.1,0-0.1,0-0.2,0c-0.5,0.1-0.9,0.3-1.3,0.7v4.6h-1.5v-4.4
	c0.1-0.4-0.2-0.7-0.6-0.8c-0.1,0-0.1,0-0.2,0c-0.5,0.1-0.9,0.3-1.3,0.7v4.6H179.3L179.3,40.6z"/>
<path class="st0" d="M188.8,31.8h1.5v3l0,0c0.4-0.4,1-0.7,1.5-0.7c1.6,0,2.5,1.6,2.5,3.1c0,2-0.9,3.5-2.5,3.5
	c-0.7,0-1.3-0.3-1.7-0.8l-0.2,0.7h-1.2V31.8L188.8,31.8z M190.3,38.9c0.3,0.3,0.7,0.5,1.2,0.6c0.9,0,1.4-0.7,1.4-2.1
	s-0.5-2.1-1.4-2.1c-0.4,0-0.9,0.2-1.2,0.5V38.9L190.3,38.9z"/>
<path class="st0" d="M195.8,37.6c0,1.3,0.6,1.8,1.3,1.8c0.6,0,1.1-0.3,1.4-0.8l1.1,0.7c-0.6,0.9-1.6,1.4-2.7,1.3
	c-1.6,0-2.7-1.3-2.7-3.3s1-3.3,2.8-3.3c1.5,0,2.6,1.2,2.6,2.7c0,0.1,0,0.1,0,0.2v0.6L195.8,37.6L195.8,37.6z M198.2,36.6
	c0.1-0.7-0.4-1.3-1.1-1.4c-0.7-0.1-1.3,0.4-1.4,1.1c0,0.1,0,0.2,0,0.3H198.2z"/>
<path class="st0" d="M200,40.6v-6.3h1.4v1.1l0,0c0.3-0.7,1-1.2,1.8-1.2v1.6h-0.3c-0.6,0.1-1.1,0.4-1.4,1v3.8L200,40.6L200,40.6z"/>
<path class="st0" d="M209.7,40.7c-2.4,0-3.7-1.6-3.7-4.5s1.3-4.5,3.7-4.5s3.7,1.6,3.7,4.5S212.1,40.7,209.7,40.7z M209.7,33
	c-1.4,0-2,1-2,3.1s0.6,3.1,2,3.1s2-1,2-3.1S211.1,33.1,209.7,33L209.7,33z"/>
<path class="st0" d="M213.8,40.6v-6.3h1.4v0.7c0.6-0.5,1.2-0.7,1.9-0.8c1.3,0,1.9,0.8,1.9,2.1v4.3h-1.5v-4.1c0-0.8-0.3-1.1-0.8-1.1
	c-0.5,0-1.1,0.3-1.4,0.7v4.6L213.8,40.6L213.8,40.6z"/>
<path class="st0" d="M220.9,37.6c0,1.3,0.6,1.8,1.3,1.8c0.6,0,1.1-0.3,1.4-0.8l1.1,0.7c-0.6,0.9-1.6,1.4-2.7,1.3
	c-1.6,0-2.7-1.3-2.7-3.3s1-3.3,2.8-3.3c1.5,0,2.7,1.2,2.6,2.7c0,0.1,0,0.1,0,0.2v0.6L220.9,37.6L220.9,37.6z M223.3,36.6
	c0.1-0.7-0.4-1.3-1.1-1.4c-0.7-0.1-1.3,0.4-1.4,1.1c0,0.1,0,0.2,0,0.3H223.3z"/>
<path class="st0" d="M225.4,40.6v-1.7h1.7v1.7H225.4z"/>
</svg>
